<svg width="339" height="236" viewBox="0 0 339 236" fill="none" xmlns="http://www.w3.org/2000/svg">
<g filter="url(#filter0_d_14_384)">
<rect x="62.9744" y="62.1393" width="220.051" height="148.128" rx="8.5623" fill="white"/>
<rect x="65.5431" y="64.708" width="214.914" height="142.99" rx="5.99361" stroke="#8D9FAD" stroke-width="5.13738"/>
</g>
<g filter="url(#filter1_d_14_384)">
<rect x="74.9617" y="73.2703" width="197.789" height="125.01" rx="3.42492" fill="#FEFFFF"/>
</g>
<mask id="path-4-inside-1_14_384" fill="white">
<path d="M39 209.411C39 207.519 40.5334 205.986 42.4249 205.986H303.575C305.467 205.986 307 207.519 307 209.411V222.254C307 229.82 300.866 235.954 293.3 235.954H52.6997C45.1336 235.954 39 229.82 39 222.254V209.411Z"/>
</mask>
<path d="M39 209.411C39 207.519 40.5334 205.986 42.4249 205.986H303.575C305.467 205.986 307 207.519 307 209.411V222.254C307 229.82 300.866 235.954 293.3 235.954H52.6997C45.1336 235.954 39 229.82 39 222.254V209.411Z" fill="white" stroke="#8D9FAD" stroke-width="10.2748" mask="url(#path-4-inside-1_14_384)"/>
<path d="M313.626 185.275C315.521 185.275 317.056 183.739 317.056 181.844C317.056 179.95 315.521 178.414 313.626 178.414C311.732 178.414 310.196 179.95 310.196 181.844C310.196 183.739 311.732 185.275 313.626 185.275Z" fill="#B5BCC4"/>
<path d="M328.582 184.907L328.549 184.88L326.348 183.158C326.208 183.048 326.097 182.906 326.023 182.745C325.949 182.584 325.914 182.407 325.922 182.23V181.425C325.915 181.249 325.95 181.074 326.024 180.914C326.098 180.754 326.209 180.614 326.348 180.505L328.549 178.782L328.582 178.756C328.921 178.474 329.149 178.08 329.225 177.646C329.3 177.212 329.218 176.765 328.994 176.385L326.014 171.242C326.011 171.237 326.008 171.232 326.005 171.227C325.779 170.852 325.429 170.569 325.016 170.425C324.602 170.281 324.151 170.287 323.741 170.44L323.717 170.449L321.129 171.488C320.965 171.554 320.789 171.58 320.613 171.565C320.438 171.549 320.269 171.492 320.119 171.399C319.891 171.255 319.658 171.119 319.422 170.991C319.269 170.908 319.137 170.79 319.038 170.647C318.939 170.504 318.874 170.34 318.85 170.168L318.461 167.413L318.452 167.363C318.367 166.936 318.138 166.551 317.802 166.273C317.466 165.996 317.045 165.842 316.609 165.837H310.643C310.201 165.838 309.773 165.996 309.436 166.281C309.098 166.566 308.873 166.96 308.798 167.395L308.792 167.434L308.403 170.195C308.379 170.367 308.316 170.531 308.217 170.673C308.119 170.816 307.988 170.934 307.836 171.018C307.599 171.145 307.367 171.28 307.139 171.423C306.99 171.516 306.821 171.573 306.646 171.588C306.471 171.603 306.295 171.577 306.132 171.511L303.542 170.467L303.517 170.458C303.107 170.304 302.655 170.299 302.241 170.443C301.827 170.587 301.477 170.872 301.252 171.247L301.242 171.262L298.259 176.409C298.034 176.789 297.952 177.236 298.027 177.671C298.103 178.106 298.331 178.5 298.67 178.782L298.703 178.809L300.905 180.531C301.044 180.641 301.156 180.783 301.229 180.944C301.303 181.105 301.338 181.282 301.33 181.459V182.263C301.337 182.439 301.302 182.615 301.228 182.775C301.154 182.935 301.043 183.075 300.904 183.183L298.703 184.907L298.67 184.933C298.331 185.215 298.103 185.609 298.028 186.043C297.952 186.477 298.034 186.924 298.259 187.304L301.238 192.447C301.242 192.452 301.245 192.457 301.247 192.462C301.473 192.836 301.823 193.12 302.237 193.264C302.65 193.407 303.101 193.402 303.511 193.249L303.535 193.239L306.121 192.2C306.285 192.135 306.462 192.108 306.637 192.124C306.813 192.14 306.982 192.196 307.131 192.29C307.36 192.434 307.592 192.57 307.828 192.698C307.982 192.781 308.113 192.899 308.212 193.041C308.312 193.184 308.376 193.348 308.4 193.521L308.788 196.276L308.796 196.326C308.881 196.754 309.111 197.139 309.448 197.417C309.784 197.695 310.206 197.848 310.643 197.852H316.609C317.051 197.85 317.479 197.693 317.816 197.408C318.154 197.123 318.38 196.728 318.454 196.293L318.461 196.254L318.849 193.494C318.873 193.321 318.938 193.158 319.037 193.015C319.136 192.872 319.267 192.754 319.42 192.671C319.658 192.543 319.891 192.407 320.117 192.266C320.266 192.173 320.435 192.116 320.61 192.101C320.785 192.085 320.961 192.112 321.124 192.177L323.714 193.218L323.739 193.228C324.149 193.382 324.601 193.387 325.015 193.243C325.429 193.098 325.779 192.814 326.004 192.438C326.007 192.433 326.01 192.428 326.013 192.423L328.993 187.281C329.218 186.901 329.301 186.453 329.225 186.018C329.15 185.583 328.922 185.189 328.582 184.907ZM319.201 182.106C319.15 183.184 318.786 184.224 318.154 185.099C317.522 185.974 316.648 186.648 315.64 187.037C314.631 187.426 313.531 187.515 312.473 187.292C311.415 187.069 310.444 186.544 309.68 185.781C308.915 185.018 308.389 184.05 308.166 182.994C307.942 181.939 308.031 180.841 308.422 179.835C308.812 178.829 309.487 177.957 310.364 177.327C311.242 176.696 312.284 176.333 313.365 176.283C314.14 176.249 314.914 176.376 315.638 176.657C316.361 176.937 317.019 177.365 317.568 177.913C318.116 178.46 318.545 179.116 318.826 179.838C319.107 180.56 319.235 181.332 319.201 182.106Z" fill="#B5BCC4"/>
<circle cx="313.301" cy="181.919" r="8.86543" stroke="white" stroke-width="0.377253"/>
<path d="M329.194 156.437C330.309 156.437 331.213 155.533 331.213 154.419C331.213 153.304 330.309 152.4 329.194 152.4C328.08 152.4 327.176 153.304 327.176 154.419C327.176 155.533 328.08 156.437 329.194 156.437Z" fill="#B5BCC4"/>
<path d="M337.994 156.22L337.975 156.205L336.679 155.191C336.597 155.127 336.532 155.043 336.488 154.948C336.445 154.853 336.424 154.75 336.429 154.645V154.172C336.425 154.068 336.445 153.965 336.489 153.871C336.533 153.777 336.598 153.695 336.68 153.631L337.975 152.617L337.994 152.601C338.194 152.435 338.328 152.204 338.372 151.948C338.417 151.693 338.368 151.43 338.236 151.206L336.483 148.18C336.481 148.177 336.479 148.174 336.478 148.171C336.345 147.951 336.139 147.784 335.896 147.7C335.652 147.615 335.387 147.618 335.146 147.708L335.132 147.714L333.609 148.325C333.513 148.364 333.409 148.379 333.305 148.37C333.202 148.361 333.103 148.327 333.015 148.272C332.88 148.188 332.743 148.108 332.604 148.032C332.514 147.984 332.437 147.914 332.378 147.83C332.32 147.746 332.282 147.65 332.268 147.548L332.039 145.927L332.034 145.898C331.984 145.647 331.849 145.42 331.651 145.257C331.454 145.093 331.206 145.003 330.949 145H327.439C327.179 145.001 326.927 145.093 326.729 145.261C326.53 145.429 326.397 145.661 326.353 145.917L326.35 145.94L326.121 147.564C326.107 147.665 326.07 147.762 326.012 147.846C325.954 147.93 325.877 147.999 325.787 148.048C325.648 148.123 325.511 148.203 325.377 148.287C325.289 148.341 325.19 148.375 325.087 148.384C324.984 148.393 324.881 148.377 324.785 148.339L323.261 147.724L323.246 147.719C323.005 147.628 322.739 147.625 322.495 147.71C322.252 147.795 322.046 147.962 321.913 148.183L321.908 148.192L320.152 151.22C320.02 151.444 319.972 151.707 320.016 151.963C320.06 152.219 320.195 152.451 320.394 152.617L320.414 152.632L321.709 153.646C321.791 153.711 321.857 153.794 321.9 153.889C321.944 153.984 321.964 154.087 321.96 154.192V154.665C321.964 154.769 321.943 154.872 321.899 154.966C321.856 155.06 321.791 155.142 321.709 155.206L320.414 156.22L320.394 156.236C320.195 156.402 320.061 156.633 320.016 156.889C319.972 157.144 320.02 157.407 320.152 157.631L321.905 160.657C321.907 160.66 321.909 160.663 321.911 160.666C322.044 160.886 322.249 161.053 322.493 161.138C322.736 161.222 323.001 161.219 323.243 161.129L323.257 161.123L324.779 160.512C324.875 160.473 324.979 160.458 325.082 160.467C325.185 160.476 325.285 160.51 325.373 160.565C325.507 160.65 325.644 160.73 325.783 160.805C325.873 160.853 325.95 160.923 326.009 161.007C326.067 161.091 326.105 161.187 326.119 161.289L326.347 162.91L326.352 162.939C326.402 163.191 326.538 163.418 326.736 163.581C326.934 163.745 327.182 163.835 327.439 163.837H330.949C331.21 163.836 331.461 163.744 331.66 163.576C331.858 163.408 331.991 163.176 332.035 162.92L332.039 162.897L332.267 161.273C332.282 161.172 332.319 161.075 332.378 160.991C332.436 160.907 332.513 160.838 332.603 160.789C332.744 160.713 332.881 160.634 333.014 160.55C333.101 160.496 333.2 160.462 333.303 160.453C333.406 160.444 333.51 160.46 333.606 160.498L335.13 161.111L335.144 161.116C335.386 161.207 335.652 161.21 335.895 161.125C336.139 161.04 336.345 160.873 336.477 160.652C336.479 160.649 336.481 160.646 336.483 160.643L338.236 157.617C338.368 157.394 338.417 157.13 338.373 156.874C338.328 156.618 338.194 156.387 337.994 156.22ZM332.474 154.573C332.444 155.207 332.23 155.818 331.858 156.334C331.487 156.849 330.973 157.245 330.379 157.474C329.786 157.703 329.138 157.755 328.516 157.624C327.893 157.493 327.322 157.184 326.872 156.735C326.422 156.286 326.113 155.716 325.981 155.095C325.85 154.474 325.902 153.828 326.132 153.236C326.362 152.644 326.759 152.131 327.275 151.76C327.791 151.389 328.405 151.176 329.04 151.146C329.497 151.126 329.952 151.201 330.378 151.366C330.804 151.531 331.19 151.783 331.513 152.105C331.836 152.427 332.088 152.813 332.254 153.238C332.419 153.663 332.494 154.117 332.474 154.573Z" fill="#B5BCC4"/>
<circle cx="329.003" cy="154.462" r="5.21632" stroke="white" stroke-width="0.221971"/>
<circle cx="88.6614" cy="86.97" r="3.42492" fill="#FF8282"/>
<circle cx="100.686" cy="86.97" r="3.42492" fill="#FFF06E"/>
<circle cx="112.71" cy="86.97" r="3.42492" fill="#D9D9D9"/>
<g filter="url(#filter2_d_14_384)">
<path d="M276.227 137.448L264.836 126.057L256.075 122.438C258.992 118.289 260.555 113.34 260.55 108.269C260.55 94.636 249.459 83.545 235.826 83.545C222.193 83.545 211.102 94.636 211.102 108.269C211.102 121.901 222.193 132.992 235.826 132.992C240.942 132.998 245.932 131.408 250.101 128.444L253.711 137.182L265.101 148.573C265.831 149.303 266.699 149.883 267.653 150.278C268.608 150.673 269.63 150.877 270.664 150.877C271.697 150.877 272.72 150.673 273.674 150.278C274.629 149.883 275.496 149.303 276.226 148.573C276.957 147.842 277.536 146.975 277.932 146.021C278.327 145.066 278.531 144.043 278.531 143.01C278.531 141.977 278.327 140.954 277.932 140C277.537 139.045 276.957 138.178 276.227 137.448ZM215.598 108.269C215.598 97.115 224.672 88.0403 235.826 88.0403C246.98 88.0403 256.054 97.115 256.054 108.269C256.054 119.422 246.98 128.497 235.826 128.497C224.672 128.497 215.598 119.422 215.598 108.269ZM273.048 145.394C272.415 146.025 271.558 146.38 270.664 146.38C269.77 146.38 268.913 146.025 268.28 145.394L257.523 134.638L254.167 126.513L262.291 129.87L273.048 140.626C273.679 141.259 274.034 142.116 274.034 143.01C274.034 143.904 273.679 144.761 273.048 145.394Z" fill="#475967"/>
</g>
<rect x="85.2365" y="104.094" width="35.9617" height="4.28115" rx="2.14058" fill="#E5E6F0"/>
<rect x="85.2365" y="114.369" width="52.23" height="4.28115" rx="2.14058" fill="#3F66C9"/>
<rect x="85.2365" y="164.031" width="52.23" height="4.28115" rx="2.14058" fill="#E5E6F0"/>
<rect x="85.2365" y="174.305" width="35.9617" height="4.28115" rx="2.14058" fill="#E5E6F0"/>
<rect x="85.2365" y="183.724" width="35.9617" height="4.28115" rx="2.14058" fill="#E5E6F0"/>
<rect x="142.604" y="114.369" width="34.2492" height="4.28115" rx="2.14058" fill="#FCAA69"/>
<rect x="142.604" y="164.031" width="52.23" height="4.28115" rx="2.14058" fill="#E5E6F0"/>
<rect x="124.623" y="174.305" width="35.9617" height="4.28115" rx="2.14058" fill="#3F66C9"/>
<rect x="124.623" y="183.724" width="65.9297" height="4.28115" rx="2.14058" fill="#E5E6F0"/>
<rect x="85.2365" y="124.644" width="52.23" height="4.28115" rx="2.14058" fill="#E5E6F0"/>
<rect x="142.604" y="124.644" width="28.2556" height="4.28115" rx="2.14058" fill="#E5E6F0"/>
<rect x="221.377" y="98.9572" width="16.5965" height="1.36037" rx="0.680183" fill="#3F66C9"/>
<rect x="221.377" y="105.807" width="16.5965" height="1.36037" rx="0.680183" fill="#3F66C9"/>
<rect x="221.377" y="113.513" width="16.5965" height="1.36037" rx="0.680183" fill="#3F66C9"/>
<rect x="239.606" y="98.9572" width="10.8829" height="1.36037" rx="0.680183" fill="#FCAA69"/>
<rect x="239.606" y="105.807" width="10.8829" height="1.36037" rx="0.680183" fill="#FCAA69"/>
<rect x="239.606" y="113.513" width="10.8829" height="1.36037" rx="0.680183" fill="#FCAA69"/>
<rect x="221.377" y="102.222" width="11.4564" height="1.36037" rx="0.680183" fill="#E5E6F0"/>
<rect x="221.377" y="109.072" width="16.5965" height="1.36037" rx="0.680183" fill="#E5E6F0"/>
<rect x="221.377" y="116.778" width="16.5965" height="1.36037" rx="0.680183" fill="#E5E6F0"/>
<rect x="234.22" y="102.222" width="15.8317" height="1.36037" rx="0.680183" fill="#E5E6F0"/>
<rect x="239.606" y="109.072" width="8.97841" height="1.36037" rx="0.680183" fill="#E5E6F0"/>
<rect x="239.606" y="116.778" width="8.97841" height="1.36037" rx="0.680183" fill="#E5E6F0"/>
<rect x="85.2365" y="134.919" width="28.2556" height="4.28115" rx="2.14058" fill="#FCAA69"/>
<rect x="85.2365" y="145.194" width="63.361" height="4.28115" rx="2.14058" fill="#3F66C9"/>
<rect x="152.879" y="145.194" width="23.9744" height="4.28115" rx="2.14058" fill="#E5E6F0"/>
<rect x="85.2365" y="154.612" width="23.9744" height="4.28115" rx="2.14058" fill="#E5E6F0"/>
<circle cx="235.933" cy="108.376" r="20.5495" fill="#BAC0CC" fill-opacity="0.16"/>
<path d="M263.832 9.75164L259.904 4.72464" stroke="#F37F23" stroke-width="2" stroke-linecap="round"/>
<path d="M257.892 17.3698L252 14.9244" stroke="#F37F23" stroke-width="2" stroke-linecap="round"/>
<path d="M273.357 7.37932L273.388 1" stroke="#F37F23" stroke-width="2" stroke-linecap="round"/>
<path d="M282.958 10.5436L286.622 5.32126" stroke="#F37F23" stroke-width="2" stroke-linecap="round"/>
<path d="M288.575 17.6507L293.848 14.0604" stroke="#F37F23" stroke-width="2" stroke-linecap="round"/>
<path fill-rule="evenodd" clip-rule="evenodd" d="M285.173 24.8847C285.173 28.1451 283.919 29.8452 282.654 31.5598C281.869 32.6237 281.08 33.6933 280.584 35.1447C279.976 36.9228 278.546 38.4941 276.667 38.4941H269.862C267.983 38.4941 266.521 36.9386 265.994 35.135C265.439 33.2385 264.473 31.7738 263.566 30.3982C262.414 28.6508 261.356 27.0471 261.356 24.8847C261.356 18.308 266.688 12.9765 273.265 12.9765C279.841 12.9765 285.173 18.308 285.173 24.8847ZM282.621 24.8847C282.621 26.8633 282.05 27.9834 281.263 29.1273C281.112 29.3463 280.929 29.592 280.728 29.8636C279.922 30.9493 278.808 32.4495 278.169 34.3195C277.981 34.8698 277.683 35.324 277.374 35.6086C277.083 35.8769 276.849 35.9424 276.667 35.9424H274.541V31.4787C274.541 30.8715 274.902 30.3356 275.276 29.8573C275.615 29.4243 275.816 28.8792 275.816 28.2871C275.816 26.8778 274.674 25.7353 273.265 25.7353C271.855 25.7353 270.713 26.8778 270.713 28.2871C270.713 28.8792 270.915 29.4243 271.253 29.8573C271.627 30.3356 271.989 30.8715 271.989 31.4787V35.9424H269.862C269.667 35.9424 269.428 35.8702 269.151 35.6149C268.859 35.3453 268.59 34.9213 268.443 34.4185C267.773 32.1272 266.585 30.3338 265.685 28.9751C265.565 28.7937 265.45 28.6199 265.342 28.4539C264.365 26.9503 263.908 26.0123 263.908 24.8847C263.908 19.7173 268.097 15.5283 273.265 15.5283C278.432 15.5283 282.621 19.7173 282.621 24.8847Z" fill="#8D9FAD"/>
<path d="M268.586 45.7241C268.586 45.0195 269.158 44.4482 269.862 44.4482H276.667C277.372 44.4482 277.943 45.0195 277.943 45.7241C277.943 46.4287 277.372 47 276.667 47H269.862C269.158 47 268.586 46.4287 268.586 45.7241Z" fill="#8D9FAD"/>
<path d="M269.012 40.1953C268.307 40.1953 267.736 40.7665 267.736 41.4712C267.736 42.1758 268.307 42.747 269.012 42.747H277.518C278.222 42.747 278.793 42.1758 278.793 41.4712C278.793 40.7665 278.222 40.1953 277.518 40.1953H269.012Z" fill="#8D9FAD"/>
<circle cx="19.5" cy="144.5" r="19.5" fill="#B5BCC4"/>
<path d="M14.501 150.216L5.77344 146.366V145.109L14.501 140.75V142.859L8.48926 145.646L14.501 148.115V150.216ZM23.5309 139.15L18.7408 152H16.3062L21.0963 139.15H23.5309ZM24.3922 148.115L30.4039 145.646L24.3922 142.859V140.75L33.1197 145.109V146.366L24.3922 150.216V148.115Z" fill="white"/>
<path d="M85.5549 27.7451L83.525 29.775L90.05 36.3L104.55 21.8L102.52 19.7701L96.2851 25.9688L90.05 32.1674L85.5549 27.7451ZM103.1 30.5C103.1 36.8799 97.8798 42.1 91.5 42.1C85.1202 42.1 79.9 36.8799 79.9 30.5C79.9 24.1201 85.1201 18.9 91.5 18.9C92.5875 18.9 93.675 19.0451 94.6903 19.3351L96.9375 17.0875C95.2701 16.3625 93.4576 16 91.5 16C83.525 16 77 22.525 77 30.5C77 38.475 83.525 45 91.5 45C99.475 45 106 38.475 106 30.5H103.1Z" fill="#B5BCC4"/>
<path fill-rule="evenodd" clip-rule="evenodd" d="M91.1614 35.8305L90.386 36.6449L83.2898 29.8885L85.5518 27.5127L90.1833 31.9224L104.524 17.2627L106.978 19.6627L91.1614 35.8305Z" fill="#262664"/>
<defs>
<filter id="filter0_d_14_384" x="59.5495" y="57.0019" width="226.901" height="154.978" filterUnits="userSpaceOnUse" color-interpolation-filters="sRGB">
<feFlood flood-opacity="0" result="BackgroundImageFix"/>
<feColorMatrix in="SourceAlpha" type="matrix" values="0 0 0 0 0 0 0 0 0 0 0 0 0 0 0 0 0 0 127 0" result="hardAlpha"/>
<feOffset dy="-1.71246"/>
<feGaussianBlur stdDeviation="1.71246"/>
<feComposite in2="hardAlpha" operator="out"/>
<feColorMatrix type="matrix" values="0 0 0 0 0.683333 0 0 0 0 0.683333 0 0 0 0 0.683333 0 0 0 0.24 0"/>
<feBlend mode="normal" in2="BackgroundImageFix" result="effect1_dropShadow_14_384"/>
<feBlend mode="normal" in="SourceGraphic" in2="effect1_dropShadow_14_384" result="shape"/>
</filter>
<filter id="filter1_d_14_384" x="73.2492" y="71.5578" width="201.214" height="128.435" filterUnits="userSpaceOnUse" color-interpolation-filters="sRGB">
<feFlood flood-opacity="0" result="BackgroundImageFix"/>
<feColorMatrix in="SourceAlpha" type="matrix" values="0 0 0 0 0 0 0 0 0 0 0 0 0 0 0 0 0 0 127 0" result="hardAlpha"/>
<feOffset/>
<feGaussianBlur stdDeviation="0.85623"/>
<feComposite in2="hardAlpha" operator="out"/>
<feColorMatrix type="matrix" values="0 0 0 0 0 0 0 0 0 0 0 0 0 0 0 0 0 0 0.23 0"/>
<feBlend mode="normal" in2="BackgroundImageFix" result="effect1_dropShadow_14_384"/>
<feBlend mode="normal" in="SourceGraphic" in2="effect1_dropShadow_14_384" result="shape"/>
</filter>
<filter id="filter2_d_14_384" x="207.677" y="80.1201" width="74.2781" height="74.1817" filterUnits="userSpaceOnUse" color-interpolation-filters="sRGB">
<feFlood flood-opacity="0" result="BackgroundImageFix"/>
<feColorMatrix in="SourceAlpha" type="matrix" values="0 0 0 0 0 0 0 0 0 0 0 0 0 0 0 0 0 0 127 0" result="hardAlpha"/>
<feOffset/>
<feGaussianBlur stdDeviation="1.71246"/>
<feComposite in2="hardAlpha" operator="out"/>
<feColorMatrix type="matrix" values="0 0 0 0 0.8125 0 0 0 0 0.810469 0 0 0 0 0.810469 0 0 0 0.27 0"/>
<feBlend mode="normal" in2="BackgroundImageFix" result="effect1_dropShadow_14_384"/>
<feBlend mode="normal" in="SourceGraphic" in2="effect1_dropShadow_14_384" result="shape"/>
</filter>
</defs>
</svg>
