<svg width="355" height="237" viewBox="0 0 355 237" fill="none" xmlns="http://www.w3.org/2000/svg">
<rect x="268.964" y="2.96357" width="69.6526" height="69.6526" rx="34.8263" fill="#F7F8FB" stroke="#4C4CA4" stroke-width="1.92715" stroke-dasharray="5.51 5.51"/>
<path d="M303.807 43.1483C307.147 43.1483 309.854 40.441 309.854 37.1014C309.854 33.7618 307.147 31.0545 303.807 31.0545C300.467 31.0545 297.76 33.7618 297.76 37.1014C297.76 40.441 300.467 43.1483 303.807 43.1483Z" fill="#D5DADF"/>
<path d="M330.172 42.4997L330.114 42.4531L326.233 39.4165C325.987 39.2225 325.791 38.9731 325.66 38.6888C325.53 38.4045 325.469 38.0934 325.483 37.781V36.3627C325.47 36.0523 325.532 35.7435 325.663 35.4615C325.793 35.1795 325.989 34.9325 326.234 34.7407L330.114 31.7029L330.172 31.6563C330.77 31.159 331.172 30.4655 331.305 29.6999C331.437 28.9343 331.293 28.1465 330.897 27.4774L325.645 18.4105C325.639 18.402 325.633 18.393 325.629 18.3835C325.231 17.7237 324.614 17.2237 323.885 16.9704C323.156 16.7172 322.361 16.7266 321.638 16.9971L321.595 17.0131L317.033 18.8449C316.745 18.961 316.433 19.0073 316.124 18.9797C315.814 18.9522 315.516 18.8517 315.253 18.6866C314.85 18.433 314.44 18.1934 314.023 17.9676C313.753 17.8215 313.522 17.6142 313.347 17.3623C313.172 17.1104 313.059 16.821 313.016 16.5174L312.329 11.6601L312.314 11.5717C312.164 10.8194 311.76 10.1414 311.168 9.65161C310.576 9.16185 309.834 8.89021 309.065 8.88234H298.548C297.768 8.88483 297.015 9.16173 296.42 9.66426C295.825 10.1668 295.426 10.8627 295.295 11.6294L295.284 11.6981L294.599 16.5653C294.557 16.8679 294.445 17.1567 294.271 17.4084C294.098 17.6602 293.868 17.8681 293.599 18.0155C293.182 18.2399 292.771 18.4781 292.37 18.7295C292.107 18.8937 291.81 18.9934 291.501 19.0205C291.193 19.0476 290.882 19.0012 290.595 18.8853L286.029 17.045L285.986 17.0278C285.262 16.757 284.466 16.7479 283.736 17.0021C283.006 17.2563 282.389 17.7577 281.991 18.4191L281.975 18.4461L276.716 27.5191C276.319 28.1889 276.175 28.9776 276.307 29.7441C276.44 30.5106 276.842 31.2049 277.441 31.7029L277.499 31.7495L281.38 34.7861C281.626 34.9801 281.822 35.2295 281.953 35.5138C282.083 35.7981 282.144 36.1092 282.13 36.4216V37.8399C282.143 38.1503 282.081 38.4592 281.95 38.7411C281.82 39.0231 281.624 39.2701 281.379 39.4619L277.499 42.4997L277.441 42.5463C276.843 43.0437 276.441 43.7371 276.308 44.5027C276.175 45.2683 276.32 46.0561 276.716 46.7252L281.968 55.7921C281.974 55.8006 281.979 55.8097 281.984 55.8191C282.382 56.4789 282.999 56.9789 283.728 57.2322C284.457 57.4855 285.252 57.476 285.975 57.2055L286.018 57.1895L290.577 55.3578C290.864 55.2416 291.176 55.1954 291.485 55.2229C291.795 55.2504 292.093 55.3509 292.356 55.516C292.759 55.7704 293.169 56.0101 293.586 56.235C293.856 56.3811 294.088 56.5884 294.263 56.8403C294.438 57.0923 294.551 57.3816 294.593 57.6852L295.277 62.5425L295.291 62.6309C295.441 63.3845 295.847 64.0634 296.44 64.5533C297.034 65.0432 297.778 65.3141 298.548 65.3203H309.065C309.845 65.3178 310.598 65.0409 311.193 64.5384C311.788 64.0358 312.187 63.3399 312.318 62.5732L312.329 62.5045L313.014 57.6374C313.057 57.3341 313.17 57.045 313.344 56.7932C313.519 56.5414 313.75 56.3338 314.02 56.1871C314.44 55.9614 314.851 55.7221 315.25 55.4731C315.512 55.3089 315.81 55.2092 316.118 55.1821C316.427 55.1551 316.737 55.2014 317.024 55.3173L321.59 57.1515L321.633 57.1687C322.357 57.44 323.153 57.4493 323.883 57.1951C324.613 56.9408 325.23 56.4391 325.628 55.7774C325.633 55.7681 325.638 55.7591 325.644 55.7504L330.896 46.6847C331.293 46.015 331.438 45.2261 331.306 44.4592C331.173 43.6924 330.771 42.9978 330.172 42.4997ZM313.634 37.5626C313.544 39.4626 312.903 41.2957 311.789 42.8389C310.674 44.3822 309.134 45.5692 307.356 46.2556C305.578 46.9419 303.639 47.0981 301.773 46.705C299.908 46.312 298.197 45.3867 296.849 44.0416C295.501 42.6966 294.574 40.9897 294.18 39.1287C293.786 37.2676 293.943 35.3325 294.631 33.5587C295.319 31.7848 296.509 30.2487 298.056 29.1371C299.603 28.0254 301.441 27.3862 303.345 27.2971C304.713 27.237 306.077 27.4614 307.353 27.9561C308.628 28.4508 309.787 29.2048 310.755 30.1703C311.722 31.1358 312.478 32.2917 312.974 33.5643C313.469 34.837 313.694 36.1986 313.634 37.5626Z" fill="#D5DADF"/>
<circle cx="303.233" cy="37.2325" r="15.6287" stroke="white" stroke-width="0.665051"/>
<path d="M192.457 167.015V226.914H245.445V167.015H192.457ZM227.019 192.073C227.019 194.165 226.111 196.172 224.493 197.651C222.875 199.131 220.681 199.962 218.392 199.962C216.104 199.962 213.91 199.131 212.292 197.651C210.674 196.172 209.766 194.165 209.766 192.073V184.183H227.019V192.073Z" fill="#8D9FAD"/>
<path d="M192.457 195.812H209.856C209.799 195.417 209.769 195.017 209.765 194.617V185.927H227.019V194.617C227.016 195.017 226.986 195.417 226.928 195.812H245.445V167.015H192.457V195.812Z" fill="#6B7E8C"/>
<path d="M329.64 38H108.838C102.852 38 98 42.867 98 48.8707V182.062C98 188.066 102.852 192.933 108.838 192.933H329.64C335.626 192.933 340.478 188.066 340.478 182.062V48.8707C340.478 42.867 335.626 38 329.64 38Z" fill="#8D9FAD"/>
<path d="M324.792 48.3673H113.11C110.491 48.3673 108.367 50.4916 108.367 53.112V177.821C108.367 180.441 110.491 182.565 113.11 182.565H324.792C327.412 182.565 329.535 180.441 329.535 177.821V53.112C329.535 50.4916 327.412 48.3673 324.792 48.3673Z" fill="white"/>
<path d="M325.654 48.3673H112.249C111.219 48.3673 110.232 48.7757 109.504 49.5027C108.776 50.2297 108.367 51.2158 108.367 52.2439V58.7345H329.535V52.2439C329.535 51.2158 329.126 50.2297 328.398 49.5027C327.67 48.7757 326.683 48.3673 325.654 48.3673Z" fill="#EBF1F5"/>
<path d="M245.445 209.635H192.457V221.155H245.445V209.635Z" fill="#6B7E8C"/>
<path d="M181.514 226.914C181.514 223.733 184.093 221.155 187.273 221.155H250.053C253.234 221.155 255.812 223.733 255.812 226.914V226.914H181.514V226.914Z" fill="#8D9FAD"/>
<g filter="url(#filter0_d_16_511)">
<rect x="115.855" y="65.646" width="64.5073" height="67.3871" fill="white"/>
</g>
<g filter="url(#filter1_d_16_511)">
<rect x="115.855" y="141.672" width="64.5073" height="32.8296" fill="white"/>
</g>
<g filter="url(#filter2_d_16_511)">
<rect x="187.274" y="65.6461" width="64.5073" height="108.856" fill="white"/>
</g>
<g filter="url(#filter3_d_16_511)">
<rect x="258.692" y="65.6461" width="64.5073" height="50.1083" fill="white"/>
</g>
<g filter="url(#filter4_d_16_511)">
<rect x="258.692" y="124.394" width="64.5073" height="50.1083" fill="white"/>
</g>
<rect x="115.855" y="65.646" width="64.5073" height="8.63937" fill="#FB9D53"/>
<rect x="187.274" y="65.646" width="64.5073" height="8.63937" fill="#FB9D53"/>
<rect x="258.692" y="65.646" width="64.5073" height="8.63937" fill="#FB9D53"/>
<rect x="258.692" y="124.394" width="64.5073" height="8.63937" fill="#FB9D53"/>
<rect x="115.855" y="141.096" width="64.5073" height="8.63937" fill="#FB9D53"/>
<rect x="2.09081" y="152.091" width="74.8184" height="17.9603" rx="3.76345" fill="white" stroke="#8D9FAD" stroke-width="4.18161"/>
<rect x="2.09081" y="179.7" width="74.8184" height="17.9603" rx="3.76345" fill="white" stroke="#8D9FAD" stroke-width="4.18161"/>
<rect x="2.09081" y="207.309" width="74.8184" height="17.9603" rx="3.76345" fill="white" stroke="#8D9FAD" stroke-width="4.18161"/>
<line x1="11.192" y1="172.142" x2="11.192" y2="177.609" stroke="#8D9FAD" stroke-width="5.4361"/>
<line x1="11.192" y1="199.751" x2="11.192" y2="205.218" stroke="#8D9FAD" stroke-width="5.4361"/>
<line x1="70.2371" y1="172.142" x2="70.2371" y2="177.609" stroke="#8D9FAD" stroke-width="5.4361"/>
<line x1="70.2371" y1="199.751" x2="70.2371" y2="205.218" stroke="#8D9FAD" stroke-width="5.4361"/>
<rect x="15.0347" y="159.294" width="18.5882" height="3.28028" rx="0.836323" fill="#8D9FAD"/>
<rect x="9.5675" y="159.294" width="3.28028" height="3.28028" rx="0.836323" fill="#8D9FAD"/>
<rect x="15.0347" y="214.512" width="18.5882" height="3.28028" rx="0.836323" fill="#8D9FAD"/>
<rect x="9.5675" y="214.512" width="3.28028" height="3.28028" rx="0.836323" fill="#8D9FAD"/>
<rect width="17.7682" height="3.28028" rx="0.836323" transform="matrix(-1 0 0 1 65.3322 186.903)" fill="#8D9FAD"/>
<rect width="3.28028" height="3.28028" rx="0.836323" transform="matrix(-1 0 0 1 70.7992 186.903)" fill="#8D9FAD"/>
<path d="M40 150V1H192V38" stroke="#A7B7C1" stroke-width="2" stroke-dasharray="5 5"/>
<circle cx="39.5" cy="62.5" r="22.4452" fill="white" stroke="#D5DADF" stroke-width="4.10968"/>
<rect x="36.4839" y="50.6451" width="6.32258" height="22.129" rx="1" fill="#4C4CA4"/>
<rect x="45.9678" y="55.3871" width="6.32258" height="17.3871" rx="1" fill="#4C4CA4"/>
<rect x="27" y="58.5483" width="6.32258" height="14.2258" rx="1" fill="#4C4CA4"/>
<g filter="url(#filter5_d_16_511)">
<rect x="245" y="172" width="106" height="61" rx="4" fill="#FEFEFE"/>
<rect x="247" y="174" width="102" height="57" rx="2" stroke="#6B7E8C" stroke-width="4"/>
</g>
<path d="M290.698 213L289.353 208.582H282.586L281.24 213H277L283.551 194.363H288.362L294.938 213H290.698ZM288.413 205.281C287.169 201.278 286.466 199.014 286.306 198.489C286.153 197.965 286.043 197.55 285.976 197.245C285.696 198.328 284.896 201.007 283.576 205.281H288.413ZM301.223 203.174H302.518C303.728 203.174 304.633 202.937 305.234 202.463C305.835 201.98 306.136 201.282 306.136 200.368C306.136 199.446 305.882 198.764 305.374 198.324C304.875 197.884 304.088 197.664 303.013 197.664H301.223V203.174ZM310.109 200.229C310.109 202.226 309.483 203.754 308.23 204.812C306.986 205.869 305.213 206.398 302.911 206.398H301.223V213H297.287V194.439H303.216C305.467 194.439 307.177 194.926 308.345 195.899C309.521 196.864 310.109 198.307 310.109 200.229ZM313.613 213V194.439H317.549V213H313.613Z" fill="#4C4CA4"/>
<defs>
<filter id="filter0_d_16_511" x="113.551" y="63.3422" width="69.115" height="71.9947" filterUnits="userSpaceOnUse" color-interpolation-filters="sRGB">
<feFlood flood-opacity="0" result="BackgroundImageFix"/>
<feColorMatrix in="SourceAlpha" type="matrix" values="0 0 0 0 0 0 0 0 0 0 0 0 0 0 0 0 0 0 127 0" result="hardAlpha"/>
<feOffset/>
<feGaussianBlur stdDeviation="1.15192"/>
<feComposite in2="hardAlpha" operator="out"/>
<feColorMatrix type="matrix" values="0 0 0 0 0 0 0 0 0 0 0 0 0 0 0 0 0 0 0.25 0"/>
<feBlend mode="normal" in2="BackgroundImageFix" result="effect1_dropShadow_16_511"/>
<feBlend mode="normal" in="SourceGraphic" in2="effect1_dropShadow_16_511" result="shape"/>
</filter>
<filter id="filter1_d_16_511" x="113.551" y="139.369" width="69.115" height="37.4373" filterUnits="userSpaceOnUse" color-interpolation-filters="sRGB">
<feFlood flood-opacity="0" result="BackgroundImageFix"/>
<feColorMatrix in="SourceAlpha" type="matrix" values="0 0 0 0 0 0 0 0 0 0 0 0 0 0 0 0 0 0 127 0" result="hardAlpha"/>
<feOffset/>
<feGaussianBlur stdDeviation="1.15192"/>
<feComposite in2="hardAlpha" operator="out"/>
<feColorMatrix type="matrix" values="0 0 0 0 0 0 0 0 0 0 0 0 0 0 0 0 0 0 0.25 0"/>
<feBlend mode="normal" in2="BackgroundImageFix" result="effect1_dropShadow_16_511"/>
<feBlend mode="normal" in="SourceGraphic" in2="effect1_dropShadow_16_511" result="shape"/>
</filter>
<filter id="filter2_d_16_511" x="184.97" y="63.3423" width="69.1149" height="113.464" filterUnits="userSpaceOnUse" color-interpolation-filters="sRGB">
<feFlood flood-opacity="0" result="BackgroundImageFix"/>
<feColorMatrix in="SourceAlpha" type="matrix" values="0 0 0 0 0 0 0 0 0 0 0 0 0 0 0 0 0 0 127 0" result="hardAlpha"/>
<feOffset/>
<feGaussianBlur stdDeviation="1.15192"/>
<feComposite in2="hardAlpha" operator="out"/>
<feColorMatrix type="matrix" values="0 0 0 0 0 0 0 0 0 0 0 0 0 0 0 0 0 0 0.25 0"/>
<feBlend mode="normal" in2="BackgroundImageFix" result="effect1_dropShadow_16_511"/>
<feBlend mode="normal" in="SourceGraphic" in2="effect1_dropShadow_16_511" result="shape"/>
</filter>
<filter id="filter3_d_16_511" x="256.388" y="63.3423" width="69.1149" height="54.716" filterUnits="userSpaceOnUse" color-interpolation-filters="sRGB">
<feFlood flood-opacity="0" result="BackgroundImageFix"/>
<feColorMatrix in="SourceAlpha" type="matrix" values="0 0 0 0 0 0 0 0 0 0 0 0 0 0 0 0 0 0 127 0" result="hardAlpha"/>
<feOffset/>
<feGaussianBlur stdDeviation="1.15192"/>
<feComposite in2="hardAlpha" operator="out"/>
<feColorMatrix type="matrix" values="0 0 0 0 0 0 0 0 0 0 0 0 0 0 0 0 0 0 0.25 0"/>
<feBlend mode="normal" in2="BackgroundImageFix" result="effect1_dropShadow_16_511"/>
<feBlend mode="normal" in="SourceGraphic" in2="effect1_dropShadow_16_511" result="shape"/>
</filter>
<filter id="filter4_d_16_511" x="256.388" y="122.09" width="69.1149" height="54.716" filterUnits="userSpaceOnUse" color-interpolation-filters="sRGB">
<feFlood flood-opacity="0" result="BackgroundImageFix"/>
<feColorMatrix in="SourceAlpha" type="matrix" values="0 0 0 0 0 0 0 0 0 0 0 0 0 0 0 0 0 0 127 0" result="hardAlpha"/>
<feOffset/>
<feGaussianBlur stdDeviation="1.15192"/>
<feComposite in2="hardAlpha" operator="out"/>
<feColorMatrix type="matrix" values="0 0 0 0 0 0 0 0 0 0 0 0 0 0 0 0 0 0 0.25 0"/>
<feBlend mode="normal" in2="BackgroundImageFix" result="effect1_dropShadow_16_511"/>
<feBlend mode="normal" in="SourceGraphic" in2="effect1_dropShadow_16_511" result="shape"/>
</filter>
<filter id="filter5_d_16_511" x="241" y="168" width="114" height="69" filterUnits="userSpaceOnUse" color-interpolation-filters="sRGB">
<feFlood flood-opacity="0" result="BackgroundImageFix"/>
<feColorMatrix in="SourceAlpha" type="matrix" values="0 0 0 0 0 0 0 0 0 0 0 0 0 0 0 0 0 0 127 0" result="hardAlpha"/>
<feOffset/>
<feGaussianBlur stdDeviation="2"/>
<feComposite in2="hardAlpha" operator="out"/>
<feColorMatrix type="matrix" values="0 0 0 0 0 0 0 0 0 0 0 0 0 0 0 0 0 0 0.24 0"/>
<feBlend mode="normal" in2="BackgroundImageFix" result="effect1_dropShadow_16_511"/>
<feBlend mode="normal" in="SourceGraphic" in2="effect1_dropShadow_16_511" result="shape"/>
</filter>
</defs>
</svg>
